<svg xmlns="http://www.w3.org/2000/svg" width="14" height="16.28" viewBox="0 0 14 16.28">
  <path id="Path_531" data-name="Path 531" d="M14.316,12.689l-.308,2.93a.833.833,0,0,1-.858.746c-.365-.013-.662-.031-.891-.055A13.332,13.332,0,0,1,.394,1.657Q.43,1.314.525.775A.833.833,0,0,1,1.433.091L4.363.4a.417.417,0,0,1,.374.416c0,.193,0,.346,0,.463A11.584,11.584,0,0,0,5.394,4.7a.38.38,0,0,1-.171.457L3.3,6.246a10.872,10.872,0,0,0,5.076,6.268L9.84,10.863a.385.385,0,0,1,.488-.074,11.583,11.583,0,0,0,3.21,1.347c.114.029.263.063.45.1a.417.417,0,0,1,.329.452Z" transform="translate(-0.32 -0.086)" fill="#6a5dd1"/>
</svg>
